<?xml version="1.0" ?><!DOCTYPE svg  PUBLIC '-//W3C//DTD SVG 1.1//EN'  'http://www.w3.org/Graphics/SVG/1.1/DTD/svg11.dtd'><svg height="100%" style="fill-rule:evenodd;clip-rule:evenodd;stroke-linejoin:round;stroke-miterlimit:1.41421;" version="1.1" viewBox="0 0 101 126" width="100%" xml:space="preserve" xmlns="http://www.w3.org/2000/svg" xmlns:serif="http://www.serif.com/" xmlns:xlink="http://www.w3.org/1999/xlink"><path d="M15.014,59.505l27.8,10.7l10.7,27.8c0.6,1.5 2.1,2.6 3.7,2.6c1.6,0 3.1,-1 3.7,-2.5l27.2,-68c0.6,-1.5 0.2,-3.2 -0.9,-4.3c-1.1,-1.1 -2.8,-1.5 -4.3,-0.9l-68,27.2c-1.5,0.6 -2.5,2.1 -2.5,3.7c0,1.7 1,3.1 2.6,3.7Z" style="fill:#e6e6e6;fill-rule:nonzero;"/><clipPath id="_clip1"><path clip-rule="nonzero" d="M15.014,59.505l27.8,10.7l10.7,27.8c0.6,1.5 2.1,2.6 3.7,2.6c1.6,0 3.1,-1 3.7,-2.5l27.2,-68c0.6,-1.5 0.2,-3.2 -0.9,-4.3c-1.1,-1.1 -2.8,-1.5 -4.3,-0.9l-68,27.2c-1.5,0.6 -2.5,2.1 -2.5,3.7c0,1.7 1,3.1 2.6,3.7Z"/></clipPath><g clip-path="url(#_clip1)"><path d="M116,47.225l-23.786,-26.42l-59.953,59.953l23.786,26.421l59.953,-59.954Z" style="fill:#020000;fill-opacity:0.25;"/></g><path d="M40.474,65.716c0,0 -17.416,-6.538 -22.533,-8.459c-0.793,-0.298 -1.23,-1.149 -1.011,-1.967c0,-0.001 0,-0.002 0.001,-0.003c0.138,-0.516 0.505,-0.94 0.996,-1.15c0.491,-0.21 1.051,-0.183 1.519,0.074c5.542,3.032 21.028,11.505 21.028,11.505Z" style="fill:#fff;fill-opacity:0.5;fill-rule:nonzero;"/></svg>